<svg width="62px" height="209px"
 viewBox="0.00 0.00 62.00 208.60" xmlns="http://www.w3.org/2000/svg" xmlns:xlink="http://www.w3.org/1999/xlink">
<g id="graph0" class="graph" transform="scale(1.0 1.0) rotate(0) translate(4 204.6)">
<title>flowdot</title>
<polygon fill="#ffffff" stroke="transparent" points="-4,4 -4,-204.6 58,-204.6 58,4 -4,4"/>
<!-- a -->
<g id="node1" class="node">
<title>a</title>
<path fill="#32cd32" stroke="#32cd32" d="M42,-200.6C42,-200.6 12,-200.6 12,-200.6 6,-200.6 0,-194.6 0,-188.6 0,-188.6 0,-176.6 0,-176.6 0,-170.6 6,-164.6 12,-164.6 12,-164.6 42,-164.6 42,-164.6 48,-164.6 54,-170.6 54,-176.6 54,-176.6 54,-188.6 54,-188.6 54,-194.6 48,-200.6 42,-200.6"/>
<text text-anchor="middle" x="27" y="-181.2001" font-family="微软雅黑" font-size="14.00" fill="#000000">开始</text>
</g>
<!-- b -->
<g id="node2" class="node">
<title>b</title>
<polygon fill="#00bfff" stroke="#00bfff" points="54,-109 0,-109 0,-73 54,-73 54,-109"/>
<text text-anchor="middle" x="27" y="-89.6" font-family="微软雅黑" font-size="14.00" fill="#000000">定义</text>
</g>
<!-- a&#45;&gt;b -->
<g id="edge1" class="edge">
<title>a&#45;&gt;b</title>
<path fill="none" stroke="#000000" d="M27,-164.5028C27,-151.5805 27,-133.9454 27,-119.1881"/>
<polygon fill="#000000" stroke="#000000" points="27,-109.0596 31.5001,-119.0596 27,-114.0596 27.0001,-119.0596 27.0001,-119.0596 27.0001,-119.0596 27,-114.0596 22.5001,-119.0597 27,-109.0596 27,-109.0596"/>
<text text-anchor="middle" x="34" y="-135.4" font-family="微软雅黑" font-size="14.00" fill="#000000">起</text>
</g>
<!-- c -->
<g id="node3" class="node">
<title>c</title>
<path fill="#f08080" stroke="#f08080" d="M42,-36C42,-36 12,-36 12,-36 6,-36 0,-30 0,-24 0,-24 0,-12 0,-12 0,-6 6,0 12,0 12,0 42,0 42,0 48,0 54,-6 54,-12 54,-12 54,-24 54,-24 54,-30 48,-36 42,-36"/>
<text text-anchor="middle" x="27" y="-16.6" font-family="微软雅黑" font-size="14.00" fill="#000000">结束</text>
</g>
<!-- b&#45;&gt;c -->
<g id="edge2" class="edge">
<title>b&#45;&gt;c</title>
<path fill="none" stroke="#000000" d="M27,-72.9551C27,-64.8828 27,-55.1764 27,-46.1817"/>
<polygon fill="#000000" stroke="#000000" points="27,-36.0904 31.5001,-46.0903 27,-41.0904 27.0001,-46.0904 27.0001,-46.0904 27.0001,-46.0904 27,-41.0904 22.5001,-46.0904 27,-36.0904 27,-36.0904"/>
</g>
</g>
</svg>
